<?xml version="1.0" encoding="UTF-8"?>
<svg id="Calque_1" data-name="Calque 1" xmlns="http://www.w3.org/2000/svg" viewBox="0 0 322.45 321.17">
  <defs>
    <style>
      .cls-1 {
        fill: #666;
        stroke-width: 0px;
      }
    </style>
  </defs>
  <path class="cls-1" d="m116,0C52.04,0,0,52.04,0,116s52.04,116,116,116,116-52.04,116-116S179.96,0,116,0ZM45.62,202.82l8.64-17.51c9.53,11.66,23.64,21.39,43.07,23.82,11.32,1.57,20.01-.21,25.82-5.32,4.99-4.38,7.35-10.69,8.45-17.33,10.57,11.66,28.99,22.31,45.82,22.9-17.64,11.64-38.76,18.43-61.43,18.43-26.65,0-51.15-9.38-70.38-25Zm82.61-34.32c.02,2.21.04,4.54,0,6.89-17.54-22.25-32.79-38.08-45.66-47.41l45.72-92.63s-.07,130.54-.05,133.14Zm-.34,13.43c-.68,7.29-2.55,14.25-7.57,18.65-4.83,4.24-12.36,5.68-22.42,4.29-19.62-2.45-32.92-12.44-41.53-23.82l24.24-49.12c16.63,12.36,34.9,34.03,47.28,50Zm-74.33-4.89c-7.74-11.91-10.73-24.53-10.73-31.19,0-7.07,2.4-19.85,11.41-22.91,1.41-.48,2.89-.7,4.46-.7,5.42,0,11.71,2.73,18.37,7.19l-23.5,47.62Zm130.39,27.7c-.91.14-1.83.24-2.79.3-17.91,1.16-38.9-11.49-48.82-24.38-.02-.02-.03-.04-.05-.06.31-4.23.27-8.41.24-12.14-.02-2.55.05-142.31.05-142.31,0-1-.69-1.86-1.66-2.09-.96-.22-1.97.24-2.41,1.14l-49.52,100.32c-10.41-6.8-19.14-9.03-26.14-6.64-11.3,3.85-14.32,18.77-14.32,26.98,0,9.4,4.02,23.25,12.83,35.64l-9.12,18.47C18.92,179.46,4.18,149.42,4.18,116,4.18,54.34,54.34,4.18,116,4.18s111.82,50.16,111.82,111.82c0,36.12-17.22,68.29-43.88,88.75Z"/>
</svg>